# xmcd
#
# Track frame offsets:
#	150
#	31112
#	65822
#	96771
#	129567
#
# Disc length: 2442 seconds
#
# Revision: 1
# Processed by: cddbd v1.5.2PL0 Copyright (c) Steve Scherf et al.
# Submitted via: audiograbber 1.83.01
#
DISCID=3e098805
DTITLE=Grateful Dead - 80-10-02 Warfield Theatre, San Francisco CA
DYEAR=1900
DGENRE=
TTITLE0=Drums
TTITLE1=Comes A Time
TTITLE2=Lost Sailor
TTITLE3=Saint Of Circumstance
TTITLE4=Terrapin Station
EXTD=
EXTT0=
EXTT1=
EXTT2=
EXTT3=
EXTT4=
PLAYORDER=
